<?xml version="1.0" standalone="no"?>
<!DOCTYPE svg PUBLIC "-//W3C//DTD SVG 20010904//EN"
 "http://www.w3.org/TR/2001/REC-SVG-20010904/DTD/svg10.dtd">
<svg version="1.0" xmlns="http://www.w3.org/2000/svg"
 width="512.000000pt" height="512.000000pt" viewBox="0 0 512.000000 512.000000"
 preserveAspectRatio="xMidYMid meet">
<metadata>
Created by potrace 1.16, written by Peter Selinger 2001-2019
</metadata>
<g transform="translate(0.000000,512.000000) scale(0.100000,-0.100000)"
fill="#000000" stroke="none">
<path d="M2310 5113 c-485 -49 -947 -234 -1330 -531 -117 -91 -316 -287 -413
-407 -279 -346 -461 -750 -539 -1199 -29 -172 -37 -551 -14 -726 43 -322 122
-581 263 -858 118 -233 256 -424 448 -621 414 -425 923 -678 1525 -757 174
-22 553 -15 726 15 262 45 485 117 719 232 248 122 448 263 654 464 397 387
647 864 742 1419 30 174 37 541 15 726 -92 751 -507 1419 -1141 1836 -329 216
-695 350 -1085 399 -113 14 -466 19 -570 8z m940 -1297 c229 -63 407 -208 505
-411 82 -170 80 -150 80 -845 0 -689 2 -672 -75 -835 -75 -162 -194 -282 -355
-360 -170 -82 -150 -80 -845 -80 -695 0 -675 -2 -845 80 -161 78 -280 198
-355 360 -77 163 -75 146 -75 835 0 689 -2 672 75 835 111 239 342 406 599
435 42 4 335 7 651 6 516 -2 582 -4 640 -20z"/>
<path d="M1950 3579 c-192 -32 -364 -199 -405 -396 -21 -97 -21 -1147 -1
-1243 22 -105 62 -177 140 -256 79 -78 151 -118 256 -140 96 -20 1146 -20
1242 0 103 22 174 62 254 141 79 78 117 147 140 253 20 98 20 1147 -1 1245
-42 201 -213 365 -415 397 -80 12 -1132 11 -1210 -1z m1359 -226 c46 -34 71
-81 71 -133 0 -148 -195 -210 -280 -90 -24 34 -36 95 -26 134 8 34 54 86 91
102 39 18 110 12 144 -13z m-656 -144 c346 -53 603 -384 558 -719 -41 -309
-264 -536 -569 -580 -290 -43 -590 139 -696 421 -143 380 97 801 499 874 90
17 120 17 208 4z"/>
<path d="M2450 2954 c-300 -81 -400 -466 -178 -684 237 -233 635 -104 691 224
50 293 -223 538 -513 460z"/>
</g>
</svg>
