<?xml version="1.0" standalone="no"?>
<!DOCTYPE svg PUBLIC "-//W3C//DTD SVG 20010904//EN"
 "http://www.w3.org/TR/2001/REC-SVG-20010904/DTD/svg10.dtd">
<svg version="1.0" xmlns="http://www.w3.org/2000/svg"
 width="512.000000pt" height="512.000000pt" viewBox="0 0 512.000000 512.000000"
 preserveAspectRatio="xMidYMid meet">
<metadata>
Created by potrace 1.16, written by Peter Selinger 2001-2019
</metadata>
<g transform="translate(0.000000,512.000000) scale(0.100000,-0.100000)"
fill="#000000" stroke="none">
<path d="M2310 5113 c-485 -49 -947 -234 -1330 -531 -117 -91 -316 -287 -413
-407 -285 -353 -467 -765 -544 -1230 -26 -158 -26 -612 0 -770 95 -573 344
-1057 748 -1450 411 -400 898 -634 1479 -711 174 -22 553 -15 726 15 262 45
485 117 719 232 248 122 448 263 654 464 399 389 647 862 742 1419 30 174 37
541 15 726 -92 751 -507 1419 -1141 1836 -329 216 -695 350 -1085 399 -113 14
-466 19 -570 8z m786 -1283 c60 -323 251 -510 567 -555 l47 -7 0 -209 0 -209
-82 0 c-138 0 -251 34 -427 126 -58 30 -106 54 -108 54 -2 0 -3 -190 -3 -423
0 -234 -5 -472 -11 -532 -36 -354 -214 -621 -514 -772 -196 -99 -433 -109
-635 -27 -322 131 -538 493 -517 864 12 200 82 359 230 516 155 166 342 248
635 279 l62 7 -2 -223 -3 -222 -110 -29 c-249 -64 -356 -159 -388 -343 -42
-246 186 -484 443 -462 98 9 154 32 219 93 41 38 67 73 90 122 62 135 61 117
61 1115 l0 907 217 -2 217 -3 12 -65z"/>
</g>
</svg>
